REM DIRINDEX 1\2,1\3
REM DIRNAME folder01,folder02,folder03
TITLE ""
FILE "Disc1Track11.mp3" MP3
  TRACK 01 AUDIO
    TITLE "0:"
    INDEX 01 00:00:00
  TRACK 02 AUDIO
    TITLE "3:cjc116_1234"
    INDEX 01 00:00:07
  TRACK 03 AUDIO
    TITLE "0:"
    INDEX 01 00:01:66
  TRACK 04 AUDIO
    TITLE "2:cjc116_1235"
    INDEX 01 00:02:47
  TRACK 05 AUDIO
    TITLE "0:"
    INDEX 01 00:03:37
  TRACK 06 AUDIO
    TITLE "2:cjc116_1236"
    INDEX 01 00:03:51
  TRACK 07 AUDIO
    TITLE "0:"
    INDEX 01 00:07:43
  TRACK 08 AUDIO
    TITLE "2:cjc116_1237"
    INDEX 01 00:08:13
  TRACK 09 AUDIO
    TITLE "0:"
    INDEX 01 00:09:04
  TRACK 10 AUDIO
    TITLE "2:cjc116_1238"
    INDEX 01 00:09:16
  TRACK 11 AUDIO
    TITLE "0:"
    INDEX 01 00:13:33
  TRACK 12 AUDIO
    TITLE "2:cjc116_1239"
    INDEX 01 00:14:09
  TRACK 13 AUDIO
    TITLE "0:"
    INDEX 01 00:14:72
  TRACK 14 AUDIO
    TITLE "2:cjc116_1240"
    INDEX 01 00:15:13
  TRACK 15 AUDIO
    TITLE "0:"
    INDEX 01 00:18:23
  TRACK 16 AUDIO
    TITLE "2:cjc116_1241"
    INDEX 01 00:18:72
  TRACK 17 AUDIO
    TITLE "0:"
    INDEX 01 00:19:60
  TRACK 18 AUDIO
    TITLE "2:cjc116_1242"
    INDEX 01 00:20:08
  TRACK 19 AUDIO
    TITLE "0:"
    INDEX 01 00:24:06
  TRACK 20 AUDIO
    TITLE "2:cjc116_1243"
    INDEX 01 00:24:53
  TRACK 21 AUDIO
    TITLE "0:"
    INDEX 01 00:25:35
  TRACK 22 AUDIO
    TITLE "2:cjc116_1244"
    INDEX 01 00:25:56
  TRACK 23 AUDIO
    TITLE "0:"
    INDEX 01 00:29:40
  TRACK 24 AUDIO
    TITLE "2:cjc116_1245"
    INDEX 01 00:30:26
  TRACK 25 AUDIO
    TITLE "0:"
    INDEX 01 00:31:27
  TRACK 26 AUDIO
    TITLE "2:cjc116_1246"
    INDEX 01 00:31:49
  TRACK 27 AUDIO
    TITLE "0:"
    INDEX 01 00:35:41
  TRACK 28 AUDIO
    TITLE "2:cjc116_1247"
    INDEX 01 00:36:03
  TRACK 29 AUDIO
    TITLE "0:"
    INDEX 01 00:37:05
  TRACK 30 AUDIO
    TITLE "2:cjc116_1248"
    INDEX 01 00:37:24
  TRACK 31 AUDIO
    TITLE "0:"
    INDEX 01 00:42:12
  TRACK 32 AUDIO
    TITLE "2:cjc116_1249"
    INDEX 01 00:42:65
  TRACK 33 AUDIO
    TITLE "0:"
    INDEX 01 00:44:01
  TRACK 34 AUDIO
    TITLE "2:cjc116_1250"
    INDEX 01 00:44:16
  TRACK 35 AUDIO
    TITLE "0:"
    INDEX 01 00:49:55
  TRACK 36 AUDIO
    TITLE "2:cjc116_1251"
    INDEX 01 00:50:33
  TRACK 37 AUDIO
    TITLE "0:"
    INDEX 01 00:51:36
  TRACK 38 AUDIO
    TITLE "2:cjc116_1252"
    INDEX 01 00:51:52
  TRACK 39 AUDIO
    TITLE "0:"
    INDEX 01 00:55:30
  TRACK 40 AUDIO
    TITLE "2:cjc116_1253"
    INDEX 01 00:55:71
  TRACK 41 AUDIO
    TITLE "0:"
    INDEX 01 00:57:09
  TRACK 42 AUDIO
    TITLE "2:cjc116_1254"
    INDEX 01 00:57:27
  TRACK 43 AUDIO
    TITLE "0:"
    INDEX 01 01:01:23
  TRACK 44 AUDIO
    TITLE "2:cjc116_1255"
    INDEX 01 01:01:62
  TRACK 45 AUDIO
    TITLE "0:"
    INDEX 01 01:02:57
  TRACK 46 AUDIO
    TITLE "2:cjc116_1256"
    INDEX 01 01:03:00
  TRACK 47 AUDIO
    TITLE "0:"
    INDEX 01 01:07:55
  TRACK 48 AUDIO
    TITLE "2:cjc116_1257"
    INDEX 01 01:08:21
  TRACK 49 AUDIO
    TITLE "0:"
    INDEX 01 01:09:40
  TRACK 50 AUDIO
    TITLE "2:cjc116_1258"
    INDEX 01 01:09:59
  TRACK 51 AUDIO
    TITLE "0:"
    INDEX 01 01:14:10
  TRACK 52 AUDIO
    TITLE "2:cjc116_1259"
    INDEX 01 01:14:66
  TRACK 53 AUDIO
    TITLE "0:"
    INDEX 01 01:15:74
  TRACK 54 AUDIO
    TITLE "2:cjc116_1260"
    INDEX 01 01:16:20
  TRACK 55 AUDIO
    TITLE "0:"
    INDEX 01 01:20:44
  TRACK 56 AUDIO
    TITLE "2:cjc116_1261"
    INDEX 01 01:21:27
  TRACK 57 AUDIO
    TITLE "0:"
    INDEX 01 01:22:23
  TRACK 58 AUDIO
    TITLE "2:cjc116_1262"
    INDEX 01 01:22:46
  TRACK 59 AUDIO
    TITLE "0:"
    INDEX 01 01:26:40
  TRACK 60 AUDIO
    TITLE "2:cjc116_1263"
    INDEX 01 01:27:03
  TRACK 61 AUDIO
    TITLE "0:"
    INDEX 01 01:27:65
  TRACK 62 AUDIO
    TITLE "2:cjc116_1264"
    INDEX 01 01:28:10
  TRACK 63 AUDIO
    TITLE "0:"
    INDEX 01 01:31:47
  TRACK 64 AUDIO
    TITLE "2:cjc116_1265"
    INDEX 01 01:32:06
  TRACK 65 AUDIO
    TITLE "0:"
    INDEX 01 01:33:03
  TRACK 66 AUDIO
    TITLE "2:cjc116_1266"
    INDEX 01 01:33:21
  TRACK 67 AUDIO
    TITLE "0:"
    INDEX 01 01:38:12
  TRACK 68 AUDIO
    TITLE "2:cjc116_1267"
    INDEX 01 01:38:53
  TRACK 69 AUDIO
    TITLE "0:"
    INDEX 01 01:39:59
  TRACK 70 AUDIO
    TITLE "2:cjc116_1268"
    INDEX 01 01:40:01
  TRACK 71 AUDIO
    TITLE "0:"
    INDEX 01 01:44:56
  TRACK 72 AUDIO
    TITLE "2:cjc116_1269"
    INDEX 01 01:45:42
  TRACK 73 AUDIO
    TITLE "0:"
    INDEX 01 01:46:68
  TRACK 74 AUDIO
    TITLE "2:cjc116_1270"
    INDEX 01 01:47:15
  TRACK 75 AUDIO
    TITLE "0:"
    INDEX 01 01:51:70
  TRACK 76 AUDIO
    TITLE "2:cjc116_1271"
    INDEX 01 01:52:40
  TRACK 77 AUDIO
    TITLE "0:"
    INDEX 01 01:53:51
  TRACK 78 AUDIO
    TITLE "2:cjc116_1272"
    INDEX 01 01:53:70
  TRACK 79 AUDIO
    TITLE "0:"
    INDEX 01 01:58:44
  TRACK 80 AUDIO
    TITLE "2:cjc116_1273"
    INDEX 01 01:59:10
  TRACK 81 AUDIO
    TITLE "0:"
    INDEX 01 02:00:25
  TRACK 82 AUDIO
    TITLE "2:cjc116_1274"
    INDEX 01 02:00:45
  TRACK 83 AUDIO
    TITLE "0:"
    INDEX 01 02:05:15
  TRACK 84 AUDIO
    TITLE "2:cjc116_1275"
    INDEX 01 02:05:56
  TRACK 85 AUDIO
    TITLE "0:"
    INDEX 01 02:07:00
  TRACK 86 AUDIO
    TITLE "2:cjc116_1276"
    INDEX 01 02:07:16
  TRACK 87 AUDIO
    TITLE "0:"
    INDEX 01 02:11:29
  TRACK 88 AUDIO
    TITLE "2:cjc116_1277"
    INDEX 01 02:11:72
  TRACK 89 AUDIO
    TITLE "0:"
    INDEX 01 02:12:60
  TRACK 90 AUDIO
    TITLE "2:cjc116_1278"
    INDEX 01 02:13:10
  TRACK 91 AUDIO
    TITLE "0:"
    INDEX 01 02:17:65
  TRACK 92 AUDIO
    TITLE "2:cjc116_1279"
    INDEX 01 02:18:35
  TRACK 93 AUDIO
    TITLE "0:"
    INDEX 01 02:19:25
  TRACK 94 AUDIO
    TITLE "2:cjc116_1280"
    INDEX 01 02:19:52
  TRACK 95 AUDIO
    TITLE "0:"
    INDEX 01 02:23:13
  TRACK 96 AUDIO
    TITLE "2:cjc116_1281"
    INDEX 01 02:23:56
  TRACK 97 AUDIO
    TITLE "0:"
    INDEX 01 02:24:65
  TRACK 98 AUDIO
    TITLE "2:cjc116_1282"
    INDEX 01 02:25:08
  TRACK 99 AUDIO
    TITLE "0:"
    INDEX 01 02:28:69
  TRACK 100 AUDIO
    TITLE "2:cjc116_1283"
    INDEX 01 02:29:53
  TRACK 101 AUDIO
    TITLE "0:"
    INDEX 01 02:30:50
  TRACK 102 AUDIO
    TITLE "2:cjc116_1284"
    INDEX 01 02:30:66
  TRACK 103 AUDIO
    TITLE "0:"
    INDEX 01 02:36:41
  TRACK 104 AUDIO
    TITLE "2:cjc116_1285"
    INDEX 01 02:37:09
  TRACK 105 AUDIO
    TITLE "0:"
    INDEX 01 02:38:18
  TRACK 106 AUDIO
    TITLE "2:cjc116_1286"
    INDEX 01 02:38:40
  TRACK 107 AUDIO
    TITLE "0:"
    INDEX 01 02:42:10
  TRACK 108 AUDIO
    TITLE "2:cjc116_1287"
    INDEX 01 02:42:57
  TRACK 109 AUDIO
    TITLE "0:"
    INDEX 01 02:43:66
  TRACK 110 AUDIO
    TITLE "2:cjc116_1288"
    INDEX 01 02:44:09
  TRACK 111 AUDIO
    TITLE "0:"
    INDEX 01 02:48:54
  TRACK 112 AUDIO
    TITLE "2:cjc116_1289"
    INDEX 01 02:49:20
  TRACK 113 AUDIO
    TITLE "0:"
    INDEX 01 02:50:18
  TRACK 114 AUDIO
    TITLE "2:cjc116_1290"
    INDEX 01 02:50:35
  TRACK 115 AUDIO
    TITLE "0:"
    INDEX 01 02:55:23
  TRACK 116 AUDIO
    TITLE "2:cjc116_1291"
    INDEX 01 02:55:62
  TRACK 117 AUDIO
    TITLE "0:"
    INDEX 01 02:56:51
  TRACK 118 AUDIO
    TITLE "2:cjc116_1292"
    INDEX 01 02:56:65
  TRACK 119 AUDIO
    TITLE "0:"
    INDEX 01 03:01:06
  TRACK 120 AUDIO
    TITLE "2:cjc116_1293"
    INDEX 01 03:01:53
  TRACK 121 AUDIO
    TITLE "0:"
    INDEX 01 03:02:48
  TRACK 122 AUDIO
    TITLE "2:cjc116_1294"
    INDEX 01 03:02:70
  TRACK 123 AUDIO
    TITLE "0:"
    INDEX 01 03:07:65
  TRACK 124 AUDIO
    TITLE "2:cjc116_1295"
    INDEX 01 03:08:31
  TRACK 125 AUDIO
    TITLE "0:"
    INDEX 01 03:09:13
  TRACK 126 AUDIO
    TITLE "2:cjc116_1296"
    INDEX 01 03:09:33
  TRACK 127 AUDIO
    TITLE "0:"
    INDEX 01 03:13:21
  TRACK 128 AUDIO
    TITLE "2:cjc116_1297"
    INDEX 01 03:13:64
  TRACK 129 AUDIO
    TITLE "0:"
    INDEX 01 03:14:67
  TRACK 130 AUDIO
    TITLE "2:cjc116_1298"
    INDEX 01 03:15:04
  TRACK 131 AUDIO
    TITLE "0:"
    INDEX 01 03:20:58
  TRACK 132 AUDIO
    TITLE "2:cjc116_1299"
    INDEX 01 03:21:38
  TRACK 133 AUDIO
    TITLE "0:"
    INDEX 01 03:22:45
  TRACK 134 AUDIO
    TITLE "2:cjc116_1300"
    INDEX 01 03:22:59
  TRACK 135 AUDIO
    TITLE "0:"
    INDEX 01 03:27:19
  TRACK 136 AUDIO
    TITLE "2:cjc116_1301"
    INDEX 01 03:27:64
  TRACK 137 AUDIO
    TITLE "0:"
    INDEX 01 03:29:00
  TRACK 138 AUDIO
    TITLE "2:cjc116_1302"
    INDEX 01 03:29:16
  TRACK 139 AUDIO
    TITLE "0:"
    INDEX 01 03:32:51
  TRACK 140 AUDIO
    TITLE "2:cjc116_1303"
    INDEX 01 03:33:19
  TRACK 141 AUDIO
    TITLE "0:"
    INDEX 01 03:34:40
  TRACK 142 AUDIO
    TITLE "2:cjc116_1304"
    INDEX 01 03:34:56
  TRACK 143 AUDIO
    TITLE "0:"
    INDEX 01 03:38:48
